<svg xmlns="http://www.w3.org/2000/svg" xmlns:xlink="http://www.w3.org/1999/xlink" width="636" zoomAndPan="magnify" viewBox="0 0 476.87997 357.749992" height="477" preserveAspectRatio="xMidYMid meet" version="1.0"><defs><clipPath id="id1"><path d="M 18.539062 354 L 458.261719 354 L 458.261719 355.441406 L 18.539062 355.441406 Z M 18.539062 354 " clip-rule="nonzero"/></clipPath></defs><path fill="#f2f0ff" d="M 260.203125 297.324219 C 255.988281 280.949219 254.253906 262.253906 263.785156 248.289062 C 266.628906 244.125 270.5625 240.476562 275.40625 239.074219 C 280.246094 237.664062 286.050781 238.925781 289.097656 242.945312 C 291.9375 246.683594 292.296875 252.363281 296.292969 254.828125 C 300.929688 257.6875 307.222656 253.78125 309.265625 248.734375 C 311.835938 242.398438 310.023438 235.191406 307.800781 228.722656 C 305.578125 222.253906 302.917969 215.566406 303.878906 208.796875 C 304.84375 202.023438 311.125 195.445312 317.78125 197.015625 C 323.5 198.359375 326.886719 204.847656 332.601562 206.210938 C 339.492188 207.855469 345.890625 200.800781 346.644531 193.753906 C 347.398438 186.707031 344.398438 179.886719 342.097656 173.1875 C 338.144531 161.667969 336.640625 147.523438 344.855469 138.539062 C 351.226562 131.570312 362.261719 129.964844 370.96875 133.609375 C 379.675781 137.25 386.003906 145.421875 388.8125 154.433594 C 391.625 163.445312 391.21875 173.210938 389.199219 182.433594 C 384.007812 206.15625 367.851562 227.238281 346.296875 238.421875 C 341.667969 240.824219 336.136719 243.675781 335.574219 248.863281 C 334.921875 254.863281 342.09375 259.199219 348.074219 258.378906 C 354.054688 257.554688 358.988281 253.5 364.011719 250.144531 C 369.035156 246.792969 375.222656 243.941406 380.949219 245.859375 C 388.632812 248.429688 391.28125 258.839844 388.035156 266.261719 C 384.785156 273.6875 377.527344 278.507812 370.246094 282.070312 C 365.761719 284.265625 360.351562 287.296875 360.511719 292.289062 C 360.652344 296.609375 364.96875 299.390625 367.433594 302.9375 C 371.230469 308.410156 370.433594 316.121094 366.996094 321.828125 C 363.558594 327.535156 357.945312 331.574219 352.207031 334.953125 C 326.816406 349.851562 291.519531 357.5 262.257812 352.417969 C 266.21875 349.292969 268.960938 348.207031 269.484375 342.90625 C 269.976562 337.917969 268.96875 332.453125 268.070312 327.566406 C 266.175781 317.308594 262.796875 307.410156 260.203125 297.324219 " fill-opacity="1" fill-rule="nonzero"/><path fill="#e4e0ff" d="M 282.128906 343.230469 C 282.226562 343.292969 282.351562 343.296875 282.453125 343.230469 C 293.921875 335.777344 301.621094 322.367188 306 302.234375 C 306.984375 297.6875 307.804688 293.011719 308.597656 288.492188 C 310.542969 277.363281 312.558594 265.859375 317.25 255.449219 C 322.199219 244.472656 330.019531 234.921875 337.582031 225.683594 L 338.851562 224.132812 C 347.203125 213.914062 355.0625 203.769531 359.433594 192.003906 C 364.402344 178.625 363.632812 164.753906 357.382812 154.898438 C 357.292969 154.757812 357.109375 154.71875 356.96875 154.808594 C 356.828125 154.894531 356.789062 155.082031 356.875 155.21875 C 363.03125 164.917969 363.777344 178.589844 358.871094 191.792969 C 354.53125 203.476562 346.707031 213.578125 338.386719 223.753906 L 337.117188 225.304688 C 329.53125 234.570312 321.6875 244.152344 316.703125 255.203125 C 311.984375 265.683594 309.960938 277.226562 308.007812 288.390625 C 307.21875 292.902344 306.398438 297.574219 305.414062 302.105469 C 301.074219 322.078125 293.457031 335.367188 282.128906 342.730469 C 281.992188 342.820312 281.953125 343.003906 282.042969 343.144531 C 282.0625 343.179688 282.09375 343.210938 282.128906 343.230469 " fill-opacity="1" fill-rule="nonzero"/><path fill="#e4e0ff" d="M 301.398438 317.152344 C 301.484375 317.210938 301.601562 317.21875 301.699219 317.164062 C 324.945312 304.511719 346.246094 288.640625 365.023438 269.988281 C 365.140625 269.875 365.140625 269.683594 365.027344 269.566406 C 364.910156 269.449219 364.722656 269.449219 364.605469 269.566406 C 345.867188 288.175781 324.609375 304.011719 301.414062 316.640625 C 301.269531 316.71875 301.21875 316.898438 301.296875 317.046875 C 301.320312 317.089844 301.355469 317.125 301.398438 317.152344 " fill-opacity="1" fill-rule="nonzero"/><path fill="#e4e0ff" d="M 326.402344 239.25 C 326.496094 239.308594 326.621094 239.316406 326.722656 239.25 C 326.863281 239.164062 326.90625 238.980469 326.816406 238.839844 C 320.886719 229.308594 317.492188 218.339844 317.011719 207.121094 C 317.003906 206.957031 316.867188 206.828125 316.699219 206.835938 C 316.535156 206.84375 316.40625 206.980469 316.414062 207.148438 C 316.898438 218.46875 320.324219 229.535156 326.3125 239.15625 C 326.335938 239.195312 326.367188 239.226562 326.402344 239.25 " fill-opacity="1" fill-rule="nonzero"/><path fill="#e4e0ff" d="M 354.917969 201.113281 C 355.003906 201.167969 355.109375 201.179688 355.210938 201.128906 C 367.921875 194.972656 377.460938 183.089844 380.71875 169.347656 C 380.753906 169.1875 380.65625 169.027344 380.496094 168.988281 C 380.335938 168.949219 380.175781 169.046875 380.136719 169.207031 C 376.917969 182.78125 367.5 194.511719 354.949219 200.59375 C 354.800781 200.664062 354.738281 200.84375 354.808594 200.992188 C 354.835938 201.042969 354.871094 201.082031 354.917969 201.113281 " fill-opacity="1" fill-rule="nonzero"/><path fill="#f2f0ff" d="M 127.859375 304.5625 C 108.730469 286.582031 96.113281 261.816406 92.804688 235.773438 C 92.3125 231.882812 92.042969 227.78125 93.589844 224.175781 C 95.136719 220.566406 99.035156 217.683594 102.859375 218.550781 C 106.894531 219.464844 109.269531 223.941406 113.226562 225.148438 C 118.367188 226.71875 123.707031 221.460938 123.769531 216.085938 C 123.835938 210.714844 120.097656 205.957031 115.703125 202.863281 C 111.308594 199.769531 106.1875 197.890625 101.546875 195.175781 C 90.210938 188.539062 82.070312 176.691406 79.933594 163.730469 C 77.800781 150.769531 81.710938 136.9375 90.320312 127.015625 C 96.113281 120.339844 106.378906 115.417969 113.558594 120.570312 C 116.8125 122.910156 118.582031 126.816406 119.535156 130.710938 C 121.386719 138.269531 120.6875 146.265625 122.441406 153.847656 C 124.195312 161.429688 129.660156 169.179688 137.429688 169.582031 C 142.726562 169.855469 147.53125 166.679688 152.691406 165.476562 C 164.261719 162.78125 176.523438 171.050781 180.773438 182.144531 C 185.027344 193.238281 182.457031 206.046875 176.597656 216.378906 C 173.964844 221.023438 170.683594 225.347656 168.839844 230.359375 C 166.996094 235.367188 166.855469 241.449219 170.214844 245.597656 C 175.714844 252.398438 186.769531 250.242188 194.109375 245.484375 C 201.445312 240.726562 207.957031 233.855469 216.589844 232.453125 C 227.46875 230.683594 238.363281 239.1875 241.296875 249.8125 C 244.226562 260.441406 240.285156 272.132812 233.128906 280.515625 C 227.699219 286.882812 220.453125 291.8125 216.46875 299.167969 C 211.710938 307.957031 212.496094 318.929688 216.28125 328.183594 C 220.070312 337.433594 226.535156 345.304688 233.0625 352.875 C 225.347656 343.925781 206.996094 338.507812 195.628906 335.78125 C 179.816406 331.988281 164.8125 329.011719 150.398438 320.996094 C 142.253906 316.464844 134.652344 310.945312 127.859375 304.5625 " fill-opacity="1" fill-rule="nonzero"/><path fill="#e4e0ff" d="M 210.890625 329.355469 C 210.828125 329.375 210.753906 329.371094 210.6875 329.347656 C 190.628906 321.691406 173.3125 308.355469 161.921875 291.804688 C 149.816406 274.210938 144.304688 252.609375 146.800781 232.539062 C 147.117188 230 147.558594 227.398438 147.984375 224.878906 C 149.433594 216.355469 150.929688 207.539062 147.855469 199.5625 C 144.597656 191.117188 136.859375 185.300781 130.03125 180.167969 C 123.40625 175.1875 115.902344 169.542969 110.242188 162.320312 C 104.039062 154.402344 101.0625 145.570312 101.859375 137.453125 C 101.875 137.277344 102.035156 137.148438 102.210938 137.164062 C 102.386719 137.179688 102.515625 137.339844 102.5 137.515625 C 101.71875 145.46875 104.648438 154.136719 110.75 161.921875 C 116.355469 169.082031 123.828125 174.699219 130.417969 179.652344 C 137.316406 184.839844 145.132812 190.714844 148.453125 199.335938 C 151.59375 207.476562 150.082031 216.378906 148.621094 224.988281 C 148.191406 227.496094 147.75 230.09375 147.4375 232.617188 C 144.960938 252.535156 150.433594 273.976562 162.449219 291.4375 C 173.769531 307.886719 190.980469 321.136719 210.914062 328.746094 C 211.082031 328.808594 211.164062 328.992188 211.101562 329.160156 C 211.0625 329.257812 210.984375 329.324219 210.890625 329.355469 " fill-opacity="1" fill-rule="nonzero"/><path fill="#e4e0ff" d="M 187.277344 316.875 C 187.167969 316.910156 187.046875 316.882812 186.960938 316.792969 C 182.898438 312.675781 181.554688 305.691406 183.535156 299 C 185.355469 292.839844 189.480469 287.527344 193.203125 283.027344 C 200.953125 273.667969 209.445312 264.777344 218.441406 256.609375 C 218.574219 256.492188 218.777344 256.5 218.894531 256.632812 C 219.015625 256.765625 219.003906 256.96875 218.871094 257.085938 C 209.898438 265.234375 201.429688 274.101562 193.699219 283.4375 C 190.015625 287.886719 185.9375 293.140625 184.148438 299.179688 C 182.234375 305.652344 183.519531 312.390625 187.417969 316.34375 C 187.539062 316.46875 187.539062 316.671875 187.410156 316.796875 C 187.375 316.835938 187.328125 316.863281 187.277344 316.875 " fill-opacity="1" fill-rule="nonzero"/><path fill="#e4e0ff" d="M 161.648438 291.171875 C 161.574219 291.191406 161.496094 291.1875 161.421875 291.15625 C 139.980469 281.179688 122.863281 261.78125 115.636719 239.261719 C 115.582031 239.089844 115.671875 238.910156 115.84375 238.855469 C 116.042969 238.800781 116.191406 238.894531 116.246094 239.066406 C 123.417969 261.417969 140.410156 280.671875 161.691406 290.570312 C 161.855469 290.648438 161.921875 290.839844 161.847656 290.996094 C 161.808594 291.085938 161.734375 291.144531 161.648438 291.171875 " fill-opacity="1" fill-rule="nonzero"/><path fill="#e4e0ff" d="M 150.179688 211.882812 C 150.101562 211.90625 150.015625 211.902344 149.9375 211.859375 C 149.78125 211.777344 149.722656 211.582031 149.804688 211.425781 C 155.460938 200.757812 157.199219 187.886719 154.582031 176.101562 C 154.542969 175.929688 154.65625 175.761719 154.824219 175.71875 C 155 175.683594 155.171875 175.789062 155.207031 175.964844 C 157.859375 187.894531 156.097656 200.929688 150.371094 211.726562 C 150.328125 211.804688 150.257812 211.859375 150.179688 211.882812 " fill-opacity="1" fill-rule="nonzero"/><g clip-path="url(#id1)"><path fill="#f6def8" d="M 457.613281 355.441406 L 19.183594 355.441406 C 18.828125 355.441406 18.539062 355.195312 18.539062 354.890625 C 18.539062 354.589844 18.828125 354.34375 19.183594 354.34375 L 457.613281 354.34375 C 457.972656 354.34375 458.261719 354.589844 458.261719 354.890625 C 458.261719 355.195312 457.972656 355.441406 457.613281 355.441406 " fill-opacity="1" fill-rule="nonzero"/></g><path fill="#ffa42f" d="M 203.734375 261.417969 C 167.148438 259.363281 158.425781 249.371094 157.550781 248.238281 C 157.277344 247.882812 157.09375 247.460938 157.015625 247.015625 L 150.269531 207.402344 C 150.132812 206.597656 150.359375 205.78125 150.882812 205.15625 C 151.40625 204.535156 152.175781 204.175781 152.992188 204.175781 L 192.828125 204.175781 L 192.828125 209.699219 L 156.257812 209.699219 L 162.3125 245.238281 C 164.34375 247.046875 174.199219 254.230469 204.046875 255.90625 L 203.734375 261.417969 " fill-opacity="1" fill-rule="nonzero"/><path fill="#ffcc46" d="M 160.933594 250.566406 C 160.660156 250.207031 160.476562 249.789062 160.398438 249.34375 L 153.652344 209.726562 C 153.515625 208.925781 153.742188 208.105469 154.265625 207.484375 C 154.789062 206.863281 155.5625 206.503906 156.375 206.503906 L 192.828125 206.503906 L 192.828125 204.175781 L 152.992188 204.175781 C 152.175781 204.175781 151.40625 204.535156 150.882812 205.15625 C 150.359375 205.78125 150.132812 206.597656 150.269531 207.402344 L 157.015625 247.015625 C 157.09375 247.460938 157.277344 247.882812 157.550781 248.238281 C 157.871094 248.648438 159.21875 250.222656 162.546875 252.160156 C 161.59375 251.367188 161.109375 250.789062 160.933594 250.566406 " fill-opacity="1" fill-rule="nonzero"/><path fill="#ffa42f" d="M 274.71875 261.625 C 311.308594 259.570312 320.03125 249.578125 320.90625 248.445312 C 321.179688 248.089844 321.363281 247.667969 321.441406 247.222656 L 328.1875 207.605469 C 328.324219 206.804688 328.097656 205.984375 327.574219 205.363281 C 327.050781 204.742188 326.277344 204.386719 325.464844 204.386719 L 285.628906 204.386719 L 285.628906 209.902344 L 322.199219 209.902344 L 316.144531 245.441406 C 314.113281 247.253906 304.257812 254.4375 274.410156 256.113281 L 274.71875 261.625 " fill-opacity="1" fill-rule="nonzero"/><path fill="#ffcc46" d="M 192.828125 198.351562 L 192.828125 243.125 C 192.828125 268.757812 213.605469 289.535156 239.230469 289.535156 C 264.859375 289.535156 285.632812 268.757812 285.632812 243.125 L 285.632812 198.351562 L 192.828125 198.351562 " fill-opacity="1" fill-rule="nonzero"/><path fill="#ffa42f" d="M 278.996094 198.351562 L 278.996094 240.058594 C 278.996094 265.6875 258.222656 286.46875 232.59375 286.46875 C 226.953125 286.46875 221.550781 285.460938 216.546875 283.617188 C 223.257812 287.382812 230.992188 289.535156 239.230469 289.535156 C 264.859375 289.535156 285.632812 268.757812 285.632812 243.125 L 285.632812 198.351562 L 278.996094 198.351562 " fill-opacity="1" fill-rule="nonzero"/><path fill="#ffcc46" d="M 291.5625 202.644531 L 187 202.644531 C 184.628906 202.644531 182.707031 200.722656 182.707031 198.351562 C 182.707031 195.980469 184.628906 194.058594 187 194.058594 L 291.5625 194.058594 C 293.933594 194.058594 295.855469 195.980469 295.855469 198.351562 C 295.855469 200.722656 293.933594 202.644531 291.5625 202.644531 " fill-opacity="1" fill-rule="nonzero"/><path fill="#ffa42f" d="M 293.214844 194.386719 C 293.28125 194.691406 293.320312 195.003906 293.320312 195.324219 C 293.320312 197.695312 291.398438 199.617188 289.027344 199.617188 L 184.464844 199.617188 C 183.878906 199.617188 183.324219 199.5 182.8125 199.289062 C 183.242188 201.207031 184.953125 202.644531 187 202.644531 L 291.5625 202.644531 C 293.933594 202.644531 295.855469 200.722656 295.855469 198.351562 C 295.855469 196.566406 294.765625 195.035156 293.214844 194.386719 " fill-opacity="1" fill-rule="nonzero"/><path fill="#ffcc46" d="M 241.890625 294.851562 L 236.574219 294.851562 C 236.980469 349.4375 192.828125 354.34375 192.828125 354.34375 L 285.632812 354.34375 C 285.632812 354.34375 241.480469 349.4375 241.890625 294.851562 " fill-opacity="1" fill-rule="nonzero"/><path fill="#ffa42f" d="M 241.890625 294.851562 L 238.164062 294.851562 C 237.757812 349.4375 281.914062 354.34375 281.914062 354.34375 L 285.632812 354.34375 C 285.632812 354.34375 241.480469 349.4375 241.890625 294.851562 " fill-opacity="1" fill-rule="nonzero"/><path fill="#ffcc46" d="M 291.511719 354.34375 L 186.949219 354.34375 C 184.578125 354.34375 182.65625 352.421875 182.65625 350.050781 C 182.65625 347.679688 184.578125 345.757812 186.949219 345.757812 L 291.511719 345.757812 C 293.882812 345.757812 295.804688 347.679688 295.804688 350.050781 C 295.804688 352.421875 293.882812 354.34375 291.511719 354.34375 " fill-opacity="1" fill-rule="nonzero"/><path fill="#ffa42f" d="M 291.898438 345.777344 C 291.886719 348.136719 289.96875 350.050781 287.605469 350.050781 L 183.042969 350.050781 C 182.914062 350.050781 182.785156 350.042969 182.660156 350.03125 C 182.660156 350.039062 182.65625 350.042969 182.65625 350.050781 C 182.65625 352.421875 184.582031 354.34375 186.949219 354.34375 L 291.511719 354.34375 C 293.882812 354.34375 295.804688 352.421875 295.804688 350.050781 C 295.804688 347.808594 294.085938 345.972656 291.898438 345.777344 " fill-opacity="1" fill-rule="nonzero"/><path fill="#ffcc46" d="M 246.230469 289.382812 L 232.230469 289.382812 C 229.40625 289.382812 227.121094 291.667969 227.121094 294.492188 C 227.121094 297.3125 229.40625 299.601562 232.230469 299.601562 L 246.230469 299.601562 C 249.054688 299.601562 251.34375 297.3125 251.34375 294.492188 C 251.34375 291.667969 249.054688 289.382812 246.230469 289.382812 " fill-opacity="1" fill-rule="nonzero"/><path fill="#ffa42f" d="M 248.359375 289.847656 C 248.675781 290.511719 248.859375 291.253906 248.859375 292.039062 C 248.859375 294.859375 246.570312 297.148438 243.75 297.148438 L 229.746094 297.148438 C 228.984375 297.148438 228.265625 296.980469 227.617188 296.683594 C 228.4375 298.40625 230.191406 299.601562 232.230469 299.601562 L 246.230469 299.601562 C 249.054688 299.601562 251.34375 297.3125 251.34375 294.492188 C 251.34375 292.429688 250.117188 290.65625 248.359375 289.847656 " fill-opacity="1" fill-rule="nonzero"/><path fill="#f7da9a" d="M 203.316406 202.644531 C 203.316406 202.644531 201.003906 259.171875 216.796875 272.820312 L 216.996094 202.644531 L 203.316406 202.644531 " fill-opacity="1" fill-rule="nonzero"/><path fill="#f2f0ff" d="M 200 71.066406 C 198.699219 65.609375 190.4375 61.398438 180.433594 61.398438 C 178.328125 61.398438 176.304688 61.585938 174.402344 61.929688 C 174.707031 61.429688 174.878906 60.898438 174.878906 60.34375 C 174.878906 57.503906 170.523438 55.199219 165.15625 55.199219 C 162.679688 55.199219 160.425781 55.6875 158.710938 56.492188 C 153.328125 54.0625 146.367188 52.597656 138.757812 52.597656 C 124.007812 52.597656 111.675781 58.105469 108.613281 65.472656 C 107.3125 64.257812 105.300781 63.472656 103.042969 63.472656 C 100.558594 63.472656 98.371094 64.417969 97.101562 65.84375 C 94.914062 64.371094 92.003906 63.472656 88.8125 63.472656 C 82.707031 63.472656 77.648438 66.757812 76.675781 71.066406 L 200 71.066406 " fill-opacity="1" fill-rule="nonzero"/><path fill="#f2f0ff" d="M 306.703125 99.175781 C 307.613281 95.226562 313.386719 92.183594 320.375 92.183594 C 321.84375 92.183594 323.261719 92.316406 324.589844 92.566406 C 324.375 92.203125 324.257812 91.820312 324.257812 91.421875 C 324.257812 89.363281 327.300781 87.699219 331.050781 87.699219 C 332.777344 87.699219 334.351562 88.050781 335.554688 88.632812 C 339.3125 86.878906 344.179688 85.816406 349.496094 85.816406 C 359.800781 85.816406 368.417969 89.800781 370.554688 95.128906 C 371.464844 94.25 372.871094 93.683594 374.449219 93.683594 C 376.183594 93.683594 377.710938 94.367188 378.601562 95.398438 C 380.128906 94.335938 382.160156 93.683594 384.390625 93.683594 C 388.65625 93.683594 392.191406 96.058594 392.871094 99.175781 L 306.703125 99.175781 " fill-opacity="1" fill-rule="nonzero"/><path fill="#bf366f" d="M 260.636719 109.613281 C 260.636719 102.367188 258.660156 92.929688 265.246094 88.097656 C 265.757812 87.691406 266.597656 87.949219 267.503906 88.492188 C 266.304688 84.902344 265.421875 81.773438 264.785156 79.28125 C 254.9375 87.351562 248.519531 101.050781 253.613281 113.125 C 256.246094 112.027344 260.636719 110.929688 260.636719 109.613281 " fill-opacity="1" fill-rule="nonzero"/><path fill="#bf366f" d="M 237.125 136.152344 C 238.898438 139.707031 241.195312 143.253906 244.09375 146.757812 C 247.386719 139.578125 248.125 131.363281 248.125 123.441406 C 245.503906 128.527344 241.15625 132.207031 237.125 136.152344 " fill-opacity="1" fill-rule="nonzero"/><path fill="#db4a87" d="M 273.726562 104.019531 C 271.058594 98.34375 269.027344 93.042969 267.503906 88.492188 C 266.597656 87.949219 265.757812 87.691406 265.246094 88.097656 C 258.660156 92.929688 260.636719 102.367188 260.636719 109.613281 C 260.636719 110.929688 256.246094 112.027344 253.613281 113.125 C 248.519531 101.050781 254.9375 87.351562 264.785156 79.28125 C 263.769531 75.292969 263.394531 72.9375 263.394531 72.9375 L 250.328125 67.839844 C 250.328125 67.839844 220.191406 102.257812 237.125 136.152344 C 241.15625 132.207031 245.503906 128.527344 248.125 123.441406 C 248.125 131.363281 247.386719 139.578125 244.09375 146.757812 C 244.402344 147.128906 244.714844 147.503906 245.039062 147.878906 C 249.257812 152.734375 253.679688 156.613281 258.179688 159.695312 C 258 144.765625 257.125 129.882812 253.394531 115.320312 C 260.414062 111.984375 267.714844 108.925781 273.726562 104.019531 " fill-opacity="1" fill-rule="nonzero"/><path fill="#bf366f" d="M 273.726562 104.019531 C 267.714844 108.925781 260.414062 111.984375 253.394531 115.320312 C 257.125 129.882812 258 144.765625 258.179688 159.695312 C 262.167969 162.421875 266.222656 164.519531 270.25 166.109375 C 270.675781 154.308594 269.847656 142.382812 266.5625 131.125 C 268.097656 131.34375 269.414062 130.6875 270.953125 130.6875 C 269.195312 126.515625 267.222656 122.34375 265.027344 118.394531 C 269.3125 116.679688 273.875 114.683594 277.75 111.929688 C 276.269531 109.234375 274.933594 106.589844 273.726562 104.019531 " fill-opacity="1" fill-rule="nonzero"/><path fill="#db4a87" d="M 295.316406 136.539062 C 287.945312 128.53125 282.203125 120.027344 277.75 111.929688 C 273.875 114.683594 269.3125 116.679688 265.027344 118.394531 C 267.222656 122.34375 269.195312 126.515625 270.953125 130.6875 C 269.414062 130.6875 268.097656 131.34375 266.5625 131.125 C 269.847656 142.382812 270.675781 154.308594 270.25 166.109375 C 296.46875 176.445312 321.65625 165.152344 321.65625 165.152344 C 321.65625 165.152344 321.65625 165.152344 295.316406 136.539062 " fill-opacity="1" fill-rule="nonzero"/><path fill="#ed7e94" d="M 259.21875 66.835938 C 259.625 65.683594 259.921875 64.734375 259.921875 64.734375 C 259.921875 64.734375 260.171875 62.113281 257.753906 64.355469 C 257.753906 64.355469 257.550781 64.625 257.257812 65.046875 C 257.804688 65.796875 258.472656 66.378906 259.21875 66.835938 " fill-opacity="1" fill-rule="nonzero"/><path fill="#ed7e94" d="M 260.222656 61.300781 C 261.535156 60.484375 263.378906 60.464844 265.105469 59.945312 L 264.890625 58.578125 C 260.804688 54.390625 257.324219 58 257.324219 58 C 257.324219 58 254.199219 61.300781 257.753906 64.355469 C 258.800781 65.253906 259.796875 65.804688 260.6875 66.128906 C 259.628906 64.398438 259.109375 62.097656 260.222656 61.300781 " fill-opacity="1" fill-rule="nonzero"/><path fill="#ff96a9" d="M 265.105469 59.945312 C 263.378906 60.464844 261.535156 60.484375 260.222656 61.300781 C 259.109375 62.097656 259.628906 64.398438 260.6875 66.128906 C 262.8125 66.898438 264.339844 66.386719 264.585938 66.296875 C 264.941406 66.171875 264.4375 62.890625 264.4375 62.890625 L 265.570312 62.890625 L 265.105469 59.945312 " fill-opacity="1" fill-rule="nonzero"/><path fill="#3f327a" d="M 260.878906 60.394531 C 260.878906 60.394531 269.050781 59.132812 272.632812 55.804688 C 272.632812 55.804688 257.628906 52.449219 254.902344 56.6875 C 252.179688 60.925781 257.753906 64.355469 257.753906 64.355469 L 259.441406 61.457031 C 259.441406 61.457031 258.28125 60.847656 258.886719 59.992188 C 259.492188 59.132812 260.878906 60.394531 260.878906 60.394531 " fill-opacity="1" fill-rule="nonzero"/><path fill="#ff96a9" d="M 231.558594 24.066406 C 231.792969 24.113281 231.847656 25.785156 231.890625 28.519531 C 233.53125 27.871094 235.007812 26.691406 235.949219 25.238281 C 234.382812 11.628906 234.515625 0.394531 234.515625 0.394531 C 234.515625 0.394531 233.675781 0.0234375 233.472656 1.804688 C 233.273438 3.585938 232.261719 12.230469 232.261719 12.230469 C 232.261719 12.230469 226.917969 15.589844 227.152344 18.617188 C 227.386719 21.644531 230.515625 22.046875 230.515625 22.046875 C 230.515625 22.046875 230.480469 23.863281 231.558594 24.066406 " fill-opacity="1" fill-rule="nonzero"/><path fill="#ff96a9" d="M 231.558594 24.066406 C 231.792969 24.113281 231.847656 25.785156 231.890625 28.519531 C 233.53125 27.871094 235.007812 26.691406 235.949219 25.238281 C 234.382812 11.628906 234.515625 0.394531 234.515625 0.394531 C 234.515625 0.394531 233.675781 0.0234375 233.472656 1.804688 C 233.273438 3.585938 232.261719 12.230469 232.261719 12.230469 C 232.261719 12.230469 226.917969 15.589844 227.152344 18.617188 C 227.386719 21.644531 230.515625 22.046875 230.515625 22.046875 C 230.515625 22.046875 230.480469 23.863281 231.558594 24.066406 " fill-opacity="1" fill-rule="nonzero"/><path fill="#f2f0ff" d="M 236.210938 27.386719 C 236.117188 26.664062 236.03125 25.949219 235.949219 25.238281 C 235.007812 26.691406 233.53125 27.871094 231.890625 28.519531 C 231.90625 29.28125 231.917969 30.128906 231.929688 31.050781 C 233.621094 30.175781 235.121094 28.917969 236.210938 27.386719 " fill-opacity="1" fill-rule="nonzero"/><path fill="#f2f0ff" d="M 261.734375 112.808594 C 262.214844 112.640625 262.734375 112.453125 263.285156 112.246094 C 262.425781 110.515625 261.007812 108.925781 259.144531 108.769531 C 258.882812 108.894531 258.617188 109.015625 258.351562 109.132812 C 259.953125 109.871094 261.054688 111.226562 261.734375 112.808594 " fill-opacity="1" fill-rule="nonzero"/><path fill="#7860dc" d="M 264.585938 79.976562 C 263.621094 81.15625 262.65625 82.375 261.742188 83.636719 C 262.941406 83.546875 263.644531 83.390625 263.644531 83.390625 C 263.644531 83.390625 269.277344 86.640625 273.132812 91.996094 C 271.167969 87.433594 268.367188 83.378906 264.585938 79.976562 " fill-opacity="1" fill-rule="nonzero"/><path fill="#7860dc" d="M 233 50.015625 C 233.972656 58.335938 235.867188 66.824219 239.625 72.359375 C 244.75 79.902344 251.175781 82.550781 256.089844 83.371094 C 244.058594 76.414062 236.503906 63.503906 233 50.015625 " fill-opacity="1" fill-rule="nonzero"/><path fill="#8b77e8" d="M 257.113281 67.476562 C 257.113281 67.476562 243.394531 62.136719 238.820312 42.363281 C 237.671875 37.390625 236.828125 32.269531 236.210938 27.386719 C 235.121094 28.917969 233.621094 30.175781 231.929688 31.050781 C 232.007812 35.976562 232.171875 42.9375 233 50.015625 C 236.503906 63.503906 244.058594 76.414062 256.089844 83.371094 C 258.410156 83.757812 260.390625 83.742188 261.742188 83.636719 C 262.65625 82.375 263.621094 81.15625 264.585938 79.976562 C 268.367188 83.378906 271.167969 87.433594 273.132812 91.996094 C 273.714844 92.804688 274.257812 93.65625 274.730469 94.554688 C 274.730469 94.554688 270.691406 103.3125 259.144531 108.769531 C 261.007812 108.925781 262.425781 110.515625 263.285156 112.246094 C 269.507812 109.917969 279.894531 105.203125 283.476562 98.589844 C 283.476562 98.589844 280.113281 73.898438 257.113281 67.476562 " fill-opacity="1" fill-rule="nonzero"/><path fill="#7860dc" d="M 233.238281 125.089844 C 233.238281 118.960938 234.398438 112.960938 236 107.089844 C 235.839844 106.339844 235.675781 105.59375 235.503906 104.84375 C 234.953125 105.492188 234.628906 105.921875 234.628906 105.921875 L 230.582031 122.371094 C 231.410156 123.304688 232.394531 124.125 233.238281 125.089844 " fill-opacity="1" fill-rule="nonzero"/><path fill="#8b77e8" d="M 240.636719 140.335938 C 239.835938 129.183594 238.347656 118.046875 236 107.089844 C 234.398438 112.960938 233.238281 118.960938 233.238281 125.089844 C 232.394531 124.125 231.410156 123.304688 230.582031 122.371094 L 212.710938 193.765625 C 212.710938 193.765625 230.667969 165.558594 240.636719 140.335938 " fill-opacity="1" fill-rule="nonzero"/><path fill="#7860dc" d="M 235.503906 104.84375 C 238.140625 116.523438 239.78125 128.417969 240.636719 140.335938 C 243.902344 132.074219 246.476562 123.585938 247.5625 115.605469 C 251.359375 87.699219 238.96875 100.746094 235.503906 104.84375 " fill-opacity="1" fill-rule="nonzero"/><path fill="#8b77e8" d="M 244.941406 128.316406 C 242.542969 120.265625 245.667969 112.507812 248.148438 104.914062 C 246.488281 104.347656 244.496094 103.910156 242.316406 103.925781 C 239.65625 103.945312 237.84375 104.335938 236.65625 104.761719 C 236.3125 105.945312 235.980469 107.136719 235.667969 108.328125 C 240.074219 118.671875 256.988281 165.1875 260.050781 193.765625 C 260.050781 193.765625 267.175781 159.867188 260.519531 129.371094 C 255.320312 129.574219 250.085938 129.265625 244.941406 128.316406 " fill-opacity="1" fill-rule="nonzero"/><path fill="#7860dc" d="M 244.941406 128.316406 C 250.085938 129.265625 255.320312 129.574219 260.519531 129.371094 C 258.914062 121.996094 256.507812 114.523438 253.011719 107.332031 C 253.011719 107.332031 251.105469 105.921875 248.148438 104.914062 C 245.667969 112.507812 242.542969 120.265625 244.941406 128.316406 " fill-opacity="1" fill-rule="nonzero"/><path fill="#7860dc" d="M 234.628906 105.921875 C 234.628906 105.921875 235.003906 106.773438 235.667969 108.328125 C 235.980469 107.136719 236.3125 105.945312 236.65625 104.761719 C 235.144531 105.308594 234.628906 105.921875 234.628906 105.921875 " fill-opacity="1" fill-rule="nonzero"/><path fill="#f2f0ff" d="M 233.039062 103.925781 C 233.039062 103.925781 236.789062 111.585938 250.386719 108.8125 L 259.097656 68.09375 C 259.097656 68.09375 256.207031 67.136719 255.183594 66.503906 C 254.25 65.925781 235.660156 86.09375 233.039062 103.925781 " fill-opacity="1" fill-rule="nonzero"/><path fill="#ff96a9" d="M 257.257812 65.046875 C 256.523438 66.097656 255.222656 68.089844 255.078125 69.171875 C 254.878906 70.6875 256.894531 71.84375 257.753906 70.382812 C 258.199219 69.617188 258.773438 68.105469 259.21875 66.835938 C 258.472656 66.378906 257.804688 65.796875 257.257812 65.046875 " fill-opacity="1" fill-rule="nonzero"/><path fill="#8b77e8" d="M 255.675781 66.765625 C 255.675781 66.765625 234.652344 93.515625 232.230469 122.621094 L 227.144531 116.613281 C 227.144531 116.613281 234.113281 80.96875 240.433594 71.28125 C 246.753906 61.597656 251.179688 63.671875 251.179688 63.671875 C 251.179688 63.671875 254.449219 66.128906 255.675781 66.765625 " fill-opacity="1" fill-rule="nonzero"/><path fill="#7860dc" d="M 263.644531 83.390625 L 263.925781 80.792969 C 260.726562 84.777344 257.65625 89.203125 256.597656 94.191406 C 259.902344 87.988281 263.644531 83.390625 263.644531 83.390625 " fill-opacity="1" fill-rule="nonzero"/><path fill="#8b77e8" d="M 259.097656 68.09375 C 259.097656 68.09375 237.574219 107.230469 245.445312 126.601562 C 245.445312 126.601562 251.800781 129.730469 262.089844 127.207031 C 262.089844 127.207031 250.855469 107.128906 254.40625 98.757812 C 255.074219 97.171875 255.824219 95.640625 256.597656 94.191406 C 257.65625 89.203125 260.726562 84.777344 263.925781 80.792969 L 265.019531 70.753906 C 263.710938 69.941406 260.945312 68.480469 259.097656 68.09375 " fill-opacity="1" fill-rule="nonzero"/><path fill="#ff96a9" d="M 258.351562 109.132812 C 256.148438 110.117188 253.683594 110.976562 250.941406 111.636719 L 245.949219 122.53125 C 245.949219 122.53125 246.753906 122.921875 247.359375 122.0625 C 247.96875 121.203125 249.480469 118.027344 249.480469 118.027344 C 249.480469 118.027344 252.101562 120.851562 253.71875 120.449219 C 255.332031 120.042969 256.1875 115.859375 256.1875 115.859375 C 256.1875 115.859375 256.742188 116.210938 257.601562 115.65625 C 258.457031 115.101562 258.410156 113.890625 258.410156 113.890625 C 258.410156 113.890625 259.710938 113.519531 261.734375 112.808594 C 261.054688 111.226562 259.953125 109.871094 258.351562 109.132812 " fill-opacity="1" fill-rule="nonzero"/><path fill="#7860dc" d="M 253.648438 65.464844 L 247.5625 69.816406 L 248.277344 72.023438 L 243.714844 72.023438 L 237.734375 99.359375 L 237.734375 99.355469 C 244.742188 80.683594 255.675781 66.765625 255.675781 66.765625 C 255.203125 66.519531 254.425781 66.003906 253.648438 65.464844 " fill-opacity="1" fill-rule="nonzero"/><path fill="#7860dc" d="M 260.628906 68.5625 C 260.085938 68.355469 259.5625 68.191406 259.097656 68.09375 C 259.097656 68.09375 250.222656 84.238281 245.953125 100.917969 L 261.734375 78.613281 L 257.703125 74.617188 L 259.851562 74.382812 L 260.628906 68.5625 " fill-opacity="1" fill-rule="nonzero"/><path fill="#ff96a9" d="M 231.558594 24.066406 C 231.792969 24.113281 231.847656 25.785156 231.890625 28.519531 C 233.53125 27.871094 235.007812 26.691406 235.949219 25.238281 C 235.722656 23.257812 235.527344 21.332031 235.367188 19.476562 C 235.28125 18.457031 235.199219 17.460938 235.125 16.492188 C 234.550781 16.425781 233.085938 16.480469 232.5 18.617188 C 231.757812 21.308594 230.515625 22.046875 230.515625 22.046875 C 230.515625 22.046875 230.480469 23.863281 231.558594 24.066406 " fill-opacity="1" fill-rule="nonzero"/><path fill="#7860dc" d="M 235.503906 102.515625 C 235.503906 103 235.308594 103.398438 235.066406 103.398438 C 234.824219 103.398438 234.628906 103 234.628906 102.515625 C 234.628906 102.027344 234.824219 101.632812 235.066406 101.632812 C 235.308594 101.632812 235.503906 102.027344 235.503906 102.515625 " fill-opacity="1" fill-rule="nonzero"/><path fill="#7860dc" d="M 247.007812 108.492188 C 246.992188 108.492188 246.96875 108.492188 246.953125 108.484375 L 245.1875 107.980469 C 245.082031 107.949219 245.019531 107.839844 245.046875 107.730469 C 245.078125 107.625 245.191406 107.5625 245.296875 107.59375 L 247.0625 108.097656 C 247.171875 108.128906 247.230469 108.238281 247.203125 108.347656 C 247.179688 108.433594 247.09375 108.492188 247.007812 108.492188 " fill-opacity="1" fill-rule="nonzero"/><path fill="#8b77e8" d="M 259.097656 79.351562 C 259.046875 79.351562 258.996094 79.335938 258.957031 79.296875 L 257.5625 77.949219 C 257.484375 77.875 257.480469 77.746094 257.558594 77.667969 C 257.636719 77.585938 257.761719 77.585938 257.84375 77.660156 L 259.238281 79.007812 C 259.316406 79.082031 259.320312 79.210938 259.242188 79.289062 C 259.207031 79.332031 259.152344 79.351562 259.097656 79.351562 " fill-opacity="1" fill-rule="nonzero"/><path fill="#7860dc" d="M 264.273438 111.230469 C 264.273438 111.472656 264.078125 111.671875 263.835938 111.671875 C 263.589844 111.671875 263.394531 111.472656 263.394531 111.230469 C 263.394531 110.988281 263.589844 110.789062 263.835938 110.789062 C 264.078125 110.789062 264.273438 110.988281 264.273438 111.230469 " fill-opacity="1" fill-rule="nonzero"/><path fill="#d4d1e8" d="M 262.507812 111.984375 C 262.507812 112.128906 262.390625 112.246094 262.246094 112.246094 C 262.097656 112.246094 261.980469 112.128906 261.980469 111.984375 C 261.980469 111.835938 262.097656 111.71875 262.246094 111.71875 C 262.390625 111.71875 262.507812 111.835938 262.507812 111.984375 " fill-opacity="1" fill-rule="nonzero"/><path fill="#7860dc" d="M 266.632812 110.246094 C 266.632812 110.492188 266.433594 110.6875 266.191406 110.6875 C 265.949219 110.6875 265.75 110.492188 265.75 110.246094 C 265.75 110.003906 265.949219 109.808594 266.191406 109.808594 C 266.433594 109.808594 266.632812 110.003906 266.632812 110.246094 " fill-opacity="1" fill-rule="nonzero"/><path fill="#7860dc" d="M 265.460938 110.6875 C 265.460938 110.933594 265.261719 111.128906 265.019531 111.128906 C 264.777344 111.128906 264.578125 110.933594 264.578125 110.6875 C 264.578125 110.445312 264.777344 110.246094 265.019531 110.246094 C 265.261719 110.246094 265.460938 110.445312 265.460938 110.6875 " fill-opacity="1" fill-rule="nonzero"/><path fill="#7860dc" d="M 267.804688 109.691406 C 267.804688 109.9375 267.609375 110.132812 267.363281 110.132812 C 267.121094 110.132812 266.921875 109.9375 266.921875 109.691406 C 266.921875 109.449219 267.121094 109.25 267.363281 109.25 C 267.609375 109.25 267.804688 109.449219 267.804688 109.691406 " fill-opacity="1" fill-rule="nonzero"/><path fill="#db4a87" d="M 255.371094 71.304688 C 262.554688 70.449219 263.074219 70.714844 265.460938 71.011719 C 265.460938 71.011719 261.746094 67.792969 259.21875 66.835938 C 259.21875 66.835938 257.75 71.101562 255.371094 71.304688 " fill-opacity="1" fill-rule="nonzero"/><path fill="#bf366f" d="M 250.855469 63.398438 C 250.855469 63.398438 254.976562 64.535156 256.789062 65.734375 C 256.789062 65.734375 254.773438 69.394531 254.820312 70.976562 C 254.867188 72.597656 254.464844 67.542969 250.855469 63.398438 " fill-opacity="1" fill-rule="nonzero"/><path fill="#3f327a" d="M 257.710938 72.03125 C 257.292969 72.84375 255.84375 72.925781 254.46875 72.21875 C 253.09375 71.507812 252.316406 70.28125 252.734375 69.46875 C 253.152344 68.660156 254.605469 68.574219 255.980469 69.285156 C 257.351562 69.988281 258.128906 71.222656 257.710938 72.03125 " fill-opacity="1" fill-rule="nonzero"/><path fill="#5644a6" d="M 257.195312 71.765625 C 256.867188 72.410156 255.714844 72.476562 254.621094 71.914062 C 253.535156 71.355469 252.917969 70.378906 253.246094 69.734375 C 253.578125 69.089844 254.730469 69.023438 255.820312 69.585938 C 256.914062 70.148438 257.527344 71.121094 257.195312 71.765625 " fill-opacity="1" fill-rule="nonzero"/><path fill="#d4d1e8" d="M 252.570312 75.050781 C 252.472656 75.3125 252.269531 75.484375 252.121094 75.425781 C 251.972656 75.371094 251.9375 75.113281 252.035156 74.847656 C 252.132812 74.585938 252.335938 74.414062 252.480469 74.472656 C 252.628906 74.527344 252.667969 74.785156 252.570312 75.050781 " fill-opacity="1" fill-rule="nonzero"/><path fill="#d4d1e8" d="M 245.628906 88.914062 C 245.53125 89.175781 245.332031 89.34375 245.183594 89.289062 C 245.035156 89.234375 244.996094 88.976562 245.09375 88.710938 C 245.195312 88.449219 245.394531 88.28125 245.542969 88.335938 C 245.691406 88.390625 245.730469 88.652344 245.628906 88.914062 " fill-opacity="1" fill-rule="nonzero"/><path fill="#d4d1e8" d="M 238.765625 105.601562 C 238.664062 105.863281 238.464844 106.03125 238.316406 105.976562 C 238.167969 105.921875 238.128906 105.664062 238.230469 105.398438 C 238.328125 105.136719 238.527344 104.96875 238.675781 105.023438 C 238.824219 105.078125 238.863281 105.335938 238.765625 105.601562 " fill-opacity="1" fill-rule="nonzero"/><path fill="#d4d1e8" d="M 249.269531 81.378906 C 249.171875 81.644531 248.972656 81.8125 248.824219 81.757812 C 248.675781 81.699219 248.636719 81.441406 248.734375 81.179688 C 248.835938 80.914062 249.035156 80.746094 249.183594 80.800781 C 249.328125 80.859375 249.371094 81.117188 249.269531 81.378906 " fill-opacity="1" fill-rule="nonzero"/><path fill="#d4d1e8" d="M 241.90625 97.25 C 241.804688 97.511719 241.605469 97.679688 241.457031 97.625 C 241.308594 97.570312 241.269531 97.3125 241.371094 97.046875 C 241.46875 96.785156 241.667969 96.613281 241.816406 96.671875 C 241.964844 96.726562 242.003906 96.984375 241.90625 97.25 " fill-opacity="1" fill-rule="nonzero"/><path fill="#3f327a" d="M 259.796875 191.578125 L 258.296875 193.765625 L 269.527344 193.765625 Z M 259.796875 191.578125 " fill-opacity="1" fill-rule="nonzero"/><path fill="#3f327a" d="M 213.730469 192.144531 L 203.679688 193.765625 L 214.980469 193.765625 Z M 213.730469 192.144531 " fill-opacity="1" fill-rule="nonzero"/><path fill="#3f327a" d="M 71.765625 217.722656 C 71.765625 217.722656 84.929688 216.671875 81.394531 209.148438 C 77.859375 201.625 70.335938 205.160156 67.253906 210.953125 C 67.253906 210.953125 60.707031 209 62.0625 218.628906 C 62.0625 218.628906 35.808594 216.972656 37.011719 233.523438 C 38.214844 250.074219 59.015625 253.496094 71.839844 239.464844 C 81.996094 228.355469 71.914062 219.980469 71.914062 219.980469 C 71.914062 219.980469 68.90625 219.230469 70.183594 217.800781 C 71.464844 216.371094 71.765625 217.722656 71.765625 217.722656 " fill-opacity="1" fill-rule="nonzero"/><path fill="#ed7e94" d="M 77.105469 221.789062 C 77.105469 221.789062 74.472656 220.660156 74.699219 223.140625 C 74.785156 224.0625 74.835938 225.148438 74.945312 226.25 C 75.914062 226.164062 76.867188 225.960938 77.761719 225.640625 C 77.292969 223.578125 77.105469 221.789062 77.105469 221.789062 " fill-opacity="1" fill-rule="nonzero"/><path fill="#ff96a9" d="M 77.761719 225.640625 C 76.867188 225.960938 75.914062 226.164062 74.945312 226.25 C 75.132812 228.128906 75.480469 230.0625 76.429688 231.339844 C 77.933594 233.371094 80.640625 232.695312 79.136719 229.761719 C 78.527344 228.574219 78.078125 227.046875 77.761719 225.640625 " fill-opacity="1" fill-rule="nonzero"/><path fill="#ed7e94" d="M 70.863281 220.28125 C 72.335938 218.320312 75.40625 218.355469 77.957031 217.132812 C 77.707031 215.992188 77.480469 215.164062 77.480469 215.164062 C 76.054688 213.960938 68.832031 215.46875 68.378906 217.421875 C 67.929688 219.378906 70.488281 222.839844 72.292969 224.042969 C 72.488281 224.175781 72.707031 224.292969 72.9375 224.394531 C 71.304688 223.386719 69.941406 221.660156 70.863281 220.28125 " fill-opacity="1" fill-rule="nonzero"/><path fill="#ff96a9" d="M 70.863281 220.28125 C 69.941406 221.660156 71.304688 223.386719 72.9375 224.394531 C 74.785156 225.242188 77.453125 225.148438 78.308594 223.515625 C 78.929688 222.335938 78.40625 219.207031 77.957031 217.132812 C 75.40625 218.355469 72.335938 218.320312 70.863281 220.28125 " fill-opacity="1" fill-rule="nonzero"/><path fill="#ed7e94" d="M 50.339844 252.152344 C 49.914062 252.410156 49.496094 252.683594 49.097656 252.972656 C 52.421875 255.792969 56.246094 257.960938 60.070312 260.015625 C 56.566406 257.515625 52.753906 254.277344 50.339844 252.152344 " fill-opacity="1" fill-rule="nonzero"/><path fill="#ed7e94" d="M 49.296875 253.136719 C 49.230469 253.082031 49.160156 253.03125 49.097656 252.972656 C 47.386719 254.207031 45.980469 255.722656 45.355469 257.683594 C 45.453125 257.761719 45.550781 257.84375 45.652344 257.921875 C 46.253906 255.992188 47.691406 254.367188 49.296875 253.136719 " fill-opacity="1" fill-rule="nonzero"/><path fill="#ff96a9" d="M 67.570312 263.589844 C 66.148438 263.910156 63.234375 262.265625 60.070312 260.015625 C 56.320312 258 52.574219 255.875 49.296875 253.136719 C 47.691406 254.367188 46.253906 255.992188 45.652344 257.921875 C 50.492188 261.839844 57.679688 266.300781 66.367188 267.578125 C 66.367188 267.578125 65.6875 268.78125 66.515625 269.007812 C 67.34375 269.234375 67.34375 269.234375 67.34375 269.234375 C 67.34375 269.234375 66.621094 269.679688 65.972656 270.332031 C 67.023438 271.367188 68.664062 271.753906 70.050781 270.960938 C 71.722656 269.847656 73.394531 268.617188 74.5 267.0625 C 73.859375 264.269531 70.765625 262.867188 67.570312 263.589844 " fill-opacity="1" fill-rule="nonzero"/><path fill="#ed7e94" d="M 70.050781 270.960938 C 68.664062 271.753906 67.023438 271.367188 65.972656 270.332031 C 65.191406 271.117188 64.523438 272.199219 65.386719 273.144531 C 66.96875 274.875 73.589844 273.671875 74.492188 269.382812 C 74.671875 268.53125 74.660156 267.753906 74.5 267.0625 C 73.394531 268.617188 71.722656 269.847656 70.050781 270.960938 " fill-opacity="1" fill-rule="nonzero"/><path fill="#ff96a9" d="M 77.875 232.441406 C 80.597656 231.949219 82.300781 229.417969 82.484375 226.691406 C 81.757812 226.632812 81.015625 226.582031 80.257812 226.546875 C 78.296875 226.589844 74.867188 227.269531 70.777344 228.550781 C 72.128906 231.160156 74.636719 233.253906 77.875 232.441406 " fill-opacity="1" fill-rule="nonzero"/><path fill="#f6def8" d="M 106.929688 246.738281 C 100.855469 238.199219 90.066406 232.042969 79.519531 234.886719 C 83.289062 234.472656 86.972656 234.78125 90.289062 236.207031 C 99.351562 240.105469 104.300781 244 106.929688 246.738281 " fill-opacity="1" fill-rule="nonzero"/><path fill="#f6def8" d="M 115.863281 248.449219 C 115.875 249.621094 115.671875 250.730469 115.1875 251.703125 C 114.722656 252.628906 114.144531 253.460938 113.484375 254.226562 C 113.792969 254.566406 114.078125 254.9375 114.324219 255.332031 C 115.511719 254.257812 116.484375 253.167969 117.066406 252.125 C 117.085938 252.117188 116.785156 250.664062 115.863281 248.449219 " fill-opacity="1" fill-rule="nonzero"/><path fill="#fef2fe" d="M 115.863281 248.449219 C 113.109375 241.851562 104.773438 228.527344 82.484375 226.691406 C 82.300781 229.417969 80.597656 231.949219 77.875 232.441406 C 74.636719 233.253906 72.128906 231.160156 70.777344 228.550781 C 59.628906 232.03125 43.566406 239.941406 38.910156 251.402344 C 38.910156 251.402344 41.242188 254.308594 45.355469 257.683594 C 45.980469 255.722656 47.386719 254.207031 49.097656 252.972656 C 47.882812 251.941406 46.734375 250.828125 45.679688 249.597656 C 54.371094 241.71875 65.023438 236.296875 76.75 235.3125 C 77.675781 235.132812 78.601562 234.988281 79.519531 234.886719 C 90.066406 232.042969 100.855469 238.199219 106.929688 246.738281 C 109.121094 249.019531 109.695312 250.5 109.695312 250.5 C 109.695312 250.5 109.1875 250.914062 108.363281 251.617188 C 110.371094 251.867188 112.179688 252.796875 113.484375 254.226562 C 114.144531 253.460938 114.722656 252.628906 115.1875 251.703125 C 115.671875 250.730469 115.875 249.621094 115.863281 248.449219 " fill-opacity="1" fill-rule="nonzero"/><path fill="#f6def8" d="M 49.097656 252.972656 C 49.496094 252.683594 49.914062 252.410156 50.339844 252.152344 C 48.828125 250.816406 47.859375 249.921875 47.859375 249.921875 C 47.859375 249.921875 62.445312 238.132812 76.75 235.3125 C 65.023438 236.296875 54.371094 241.71875 45.679688 249.597656 C 46.734375 250.828125 47.882812 251.941406 49.097656 252.972656 " fill-opacity="1" fill-rule="nonzero"/><path fill="#ed7e94" d="M 99.242188 264.644531 C 98.335938 265.246094 99.242188 267.351562 98.636719 268.554688 C 98.097656 269.457031 97.015625 269.816406 95.847656 269.832031 C 96.90625 271.40625 98.710938 272.1875 100.742188 271.265625 C 104.054688 269.757812 102.171875 266.222656 101.046875 265.921875 C 101.046875 265.921875 101.722656 265.226562 101.195312 264.671875 C 100.667969 264.117188 100.667969 264.117188 100.667969 264.117188 C 100.667969 264.117188 109.375 259.820312 114.324219 255.332031 C 114.078125 254.9375 113.792969 254.566406 113.484375 254.226562 C 109.835938 258.433594 103.566406 260.570312 99.242188 264.644531 " fill-opacity="1" fill-rule="nonzero"/><path fill="#ff96a9" d="M 108.363281 251.617188 C 104.746094 254.679688 94.996094 263.207031 94.878906 266.148438 C 94.820312 267.539062 95.1875 268.839844 95.847656 269.832031 C 97.015625 269.816406 98.097656 269.457031 98.636719 268.554688 C 99.242188 267.351562 98.335938 265.246094 99.242188 264.644531 C 103.566406 260.570312 109.835938 258.433594 113.484375 254.226562 C 112.179688 252.796875 110.371094 251.867188 108.363281 251.617188 " fill-opacity="1" fill-rule="nonzero"/><path fill="#3f327a" d="M 86.335938 353.832031 C 85.382812 351.214844 84.535156 348.5625 83.777344 345.894531 C 82.539062 345.734375 81.3125 345.507812 80.113281 345.097656 C 82.835938 349.496094 85.371094 352.667969 86.335938 353.832031 " fill-opacity="1" fill-rule="nonzero"/><path fill="#332963" d="M 86.753906 354.320312 C 85.832031 351.792969 85.058594 348.976562 84.40625 345.96875 C 84.195312 345.949219 83.988281 345.921875 83.777344 345.894531 C 84.535156 348.5625 85.382812 351.214844 86.335938 353.832031 C 86.601562 354.152344 86.753906 354.320312 86.753906 354.320312 " fill-opacity="1" fill-rule="nonzero"/><path fill="#ed7e94" d="M 83.777344 345.894531 C 83.988281 345.921875 84.195312 345.949219 84.40625 345.96875 C 79.203125 321.929688 81.9375 285.558594 81.9375 285.558594 C 81.9375 285.558594 81.472656 283.894531 80.035156 282.796875 C 77.734375 303.746094 77.992188 325.511719 83.777344 345.894531 " fill-opacity="1" fill-rule="nonzero"/><path fill="#ff96a9" d="M 80.035156 282.796875 C 78.882812 281.910156 77.097656 281.394531 74.414062 282.398438 C 68.398438 284.65625 67.746094 288.417969 67.746094 288.417969 C 67.746094 288.417969 71.855469 299.550781 71.253906 317.757812 C 70.921875 327.886719 75.757812 338.0625 80.113281 345.097656 C 81.3125 345.507812 82.539062 345.734375 83.777344 345.894531 C 77.992188 325.511719 77.734375 303.746094 80.035156 282.796875 " fill-opacity="1" fill-rule="nonzero"/><path fill="#ed7e94" d="M 98.136719 287.667969 C 90.71875 280.785156 82.691406 289.46875 82.691406 289.46875 C 82.691406 289.46875 85.136719 291.890625 88.015625 295.757812 C 92 295.316406 95.894531 294.214844 99.691406 292.855469 C 99.203125 291.117188 98.683594 289.386719 98.136719 287.667969 " fill-opacity="1" fill-rule="nonzero"/><path fill="#ff96a9" d="M 88.015625 295.757812 C 92.253906 301.449219 97.429688 310.269531 97.132812 319.113281 C 96.851562 327.390625 99.832031 337.289062 102.550781 344.480469 C 103.792969 344.441406 105.019531 344.183594 106.1875 343.753906 C 106.464844 326.613281 104.328125 309.296875 99.691406 292.855469 C 95.894531 294.214844 92 295.316406 88.015625 295.757812 " fill-opacity="1" fill-rule="nonzero"/><path fill="#ed7e94" d="M 101.246094 291.628906 C 100.238281 289.941406 99.195312 288.648438 98.136719 287.667969 C 103.847656 305.628906 106.496094 324.800781 106.1875 343.753906 C 106.652344 343.585938 107.109375 343.390625 107.554688 343.167969 C 107.625 321.320312 101.246094 291.628906 101.246094 291.628906 " fill-opacity="1" fill-rule="nonzero"/><path fill="#3f327a" d="M 102.550781 344.480469 C 103.828125 347.867188 105.046875 350.652344 105.84375 352.382812 C 106.027344 349.515625 106.140625 346.636719 106.1875 343.753906 C 105.019531 344.183594 103.792969 344.441406 102.550781 344.480469 " fill-opacity="1" fill-rule="nonzero"/><path fill="#332963" d="M 107.554688 343.167969 C 107.109375 343.390625 106.652344 343.585938 106.1875 343.753906 C 106.140625 346.636719 106.027344 349.515625 105.84375 352.382812 C 106.410156 353.617188 106.761719 354.320312 106.761719 354.320312 C 107.304688 351.039062 107.539062 347.238281 107.554688 343.167969 " fill-opacity="1" fill-rule="nonzero"/><path fill="#3f327a" d="M 76.863281 260.730469 C 76.863281 260.730469 66.039062 258.925781 67.746094 288.417969 C 67.746094 288.417969 76.972656 298.648438 101.246094 291.628906 C 101.246094 291.628906 97.9375 271.164062 93.921875 263.238281 C 89.910156 255.316406 76.863281 260.730469 76.863281 260.730469 " fill-opacity="1" fill-rule="nonzero"/><path fill="#ff96a9" d="M 77.875 232.441406 C 79.703125 232.109375 81.070312 230.859375 81.828125 229.253906 C 79.160156 228.992188 75.792969 229.199219 72.429688 230.832031 C 73.824219 232.207031 75.683594 232.992188 77.875 232.441406 " fill-opacity="1" fill-rule="nonzero"/><path fill="#fef2fe" d="M 92.921875 261.03125 C 92.320312 254.714844 92.617188 246.289062 84.796875 244.78125 C 88.105469 245.082031 92.015625 243.277344 92.617188 239.667969 C 92.617188 239.140625 92.515625 238.511719 92.371094 237.898438 C 90.523438 235.4375 87.40625 236.65625 87.40625 236.65625 L 87.203125 230.539062 C 87.203125 230.539062 85.011719 229.5625 81.828125 229.253906 C 81.070312 230.859375 79.703125 232.109375 77.875 232.441406 C 75.683594 232.992188 73.824219 232.207031 72.429688 230.832031 C 70.433594 231.804688 68.441406 233.273438 66.59375 235.453125 L 69.75 240.269531 C 69.75 240.269531 66.351562 242.582031 68.613281 245.53125 C 71.429688 248.085938 76.585938 246.78125 79.980469 245.082031 C 78.851562 246.664062 77.382812 247.738281 75.574219 248.429688 C 76.734375 250.859375 79.125 256.820312 76.863281 260.730469 C 76.863281 260.730469 77.585938 262.125 79.574219 263.269531 C 84.105469 263.96875 88.851562 262.839844 92.921875 261.03125 " fill-opacity="1" fill-rule="nonzero"/><path fill="#f6def8" d="M 93.921875 263.238281 C 93.921875 263.238281 93.722656 249.898438 89.710938 244.984375 C 89.710938 244.984375 95.175781 242.449219 92.617188 238.261719 C 92.539062 238.132812 92.457031 238.011719 92.371094 237.898438 C 92.515625 238.511719 92.617188 239.140625 92.617188 239.667969 C 92.015625 243.277344 88.105469 245.082031 84.796875 244.78125 C 92.617188 246.289062 92.320312 254.714844 92.921875 261.03125 C 88.851562 262.839844 84.105469 263.96875 79.574219 263.269531 C 82.042969 264.699219 86.472656 265.742188 93.921875 263.238281 " fill-opacity="1" fill-rule="nonzero"/><path fill="#f6def8" d="M 79.980469 245.082031 C 76.585938 246.78125 71.429688 248.085938 68.613281 245.53125 C 68.726562 245.679688 68.855469 245.832031 69 245.984375 C 72.007812 249.144531 75.015625 247.339844 75.015625 247.339844 C 75.015625 247.339844 75.246094 247.746094 75.574219 248.429688 C 77.382812 247.738281 78.851562 246.664062 79.980469 245.082031 " fill-opacity="1" fill-rule="nonzero"/><path fill="#3f327a" d="M 77.769531 216.3125 C 77.769531 216.3125 73.515625 218.878906 68.328125 219.28125 C 63.140625 219.679688 65.746094 215.46875 65.746094 215.46875 L 77.769531 212.257812 L 79.578125 214.964844 L 77.769531 216.3125 " fill-opacity="1" fill-rule="nonzero"/><path fill="#ed7e94" d="M 406.683594 219.652344 L 406.886719 217.21875 L 405.132812 217.21875 C 405.132812 217.21875 404.882812 218.277344 404.574219 219.453125 C 405.304688 219.75 405.984375 219.78125 406.683594 219.652344 " fill-opacity="1" fill-rule="nonzero"/><path fill="#ff96a9" d="M 404.574219 219.453125 C 404.261719 220.628906 403.890625 221.929688 403.652344 222.402344 C 403.175781 223.359375 404.445312 223.992188 406.402344 222.988281 L 406.683594 219.652344 C 405.984375 219.78125 405.304688 219.75 404.574219 219.453125 " fill-opacity="1" fill-rule="nonzero"/><path fill="#ff96a9" d="M 408.996094 213.730469 C 407.519531 212.546875 404.671875 213.835938 402.75 212.238281 C 402.542969 214.253906 402.535156 217.765625 404.710938 219.019531 C 406.023438 219.773438 407.339844 218.933594 408.4375 217.65625 C 409.160156 216.082031 409.714844 214.449219 408.996094 213.730469 " fill-opacity="1" fill-rule="nonzero"/><path fill="#ed7e94" d="M 402.964844 210.765625 C 402.964844 210.765625 402.839844 211.359375 402.75 212.238281 C 404.671875 213.835938 407.519531 212.546875 408.996094 213.730469 C 409.714844 214.449219 409.160156 216.082031 408.4375 217.65625 C 409.953125 215.894531 411.046875 213.304688 411.109375 212.9375 C 411.214844 212.300781 408.570312 207.964844 402.964844 210.765625 " fill-opacity="1" fill-rule="nonzero"/><path fill="#3f327a" d="M 402.816406 215.796875 C 402.816406 215.796875 400.53125 212.882812 400.953125 210.132812 C 401.378906 207.382812 404.339844 206.058594 407.671875 206.589844 C 411.003906 207.117188 413.703125 208.863281 413.171875 211.613281 C 412.644531 214.363281 411.261719 216.027344 409.414062 216.34375 C 409.414062 216.34375 410.714844 213.597656 410.714844 212.0625 C 410.714844 212.0625 406.457031 213.675781 403.019531 211.875 C 403.019531 211.875 402.550781 214.15625 402.816406 215.796875 " fill-opacity="1" fill-rule="nonzero"/><path fill="#ff96a9" d="M 380.910156 256.203125 C 380.910156 256.203125 380.109375 255.332031 378.988281 253.9375 C 378.824219 254.097656 378.675781 254.269531 378.535156 254.445312 C 377.835938 255.324219 377.382812 256.394531 377.136719 257.519531 C 377.90625 258.050781 378.691406 258.519531 379.480469 258.898438 C 379.480469 258.898438 379.269531 260.167969 379.851562 260.328125 C 380.433594 260.488281 380.433594 260.488281 380.433594 260.488281 C 380.433594 260.488281 380.175781 260.730469 379.929688 261.101562 C 381.425781 262.308594 383.542969 262.800781 385.496094 262.59375 C 386.003906 262.09375 386.550781 261.488281 387.152344 260.75 C 387.445312 260.390625 387.675781 260.058594 387.851562 259.75 C 390.472656 255.183594 380.910156 256.203125 380.910156 256.203125 " fill-opacity="1" fill-rule="nonzero"/><path fill="#ed7e94" d="M 379.929688 261.101562 C 379.566406 261.648438 379.230469 262.480469 379.800781 263.238281 C 380.628906 264.34375 382.0625 265.96875 385.496094 262.59375 C 383.542969 262.800781 381.425781 262.308594 379.929688 261.101562 " fill-opacity="1" fill-rule="nonzero"/><path fill="#ff96a9" d="M 408.359375 264.507812 C 410.398438 261.59375 412.941406 259.542969 415.71875 257.890625 C 415.050781 256.804688 414.203125 255.832031 413.144531 255.019531 C 411.246094 256.335938 409.625 257.558594 408.675781 258.476562 C 406.296875 260.792969 406.1875 263.3125 407.167969 264.980469 C 407.652344 264.96875 408.089844 264.90625 408.359375 264.507812 " fill-opacity="1" fill-rule="nonzero"/><path fill="#ed7e94" d="M 415.71875 257.890625 C 412.941406 259.542969 410.398438 261.59375 408.359375 264.507812 C 408.089844 264.90625 407.652344 264.96875 407.167969 264.980469 C 407.753906 265.984375 408.730469 266.675781 409.839844 266.835938 C 412.800781 267.257812 414.496094 263.976562 412.800781 262.390625 C 412.800781 262.390625 414.070312 260.382812 412.695312 260.277344 C 412.695312 260.277344 414.128906 259.808594 416.316406 258.980469 C 416.136719 258.609375 415.9375 258.242188 415.71875 257.890625 " fill-opacity="1" fill-rule="nonzero"/><path fill="#f6def8" d="M 378.535156 254.445312 C 378.675781 254.269531 378.824219 254.097656 378.988281 253.9375 C 376.554688 250.910156 372.605469 245.40625 372.023438 240.917969 C 372.023438 240.917969 383.757812 231.550781 396.207031 229.597656 C 386.386719 230.125 376.730469 233.890625 369.644531 240.707031 C 372.121094 245.476562 374.792969 250.640625 378.535156 254.445312 " fill-opacity="1" fill-rule="nonzero"/><path fill="#f6def8" d="M 412.484375 231.183594 C 412.304688 231.671875 412.132812 232.160156 411.960938 232.648438 C 412.171875 232.792969 412.382812 232.945312 412.589844 233.101562 C 416.855469 236.351562 420.917969 240.070312 423.671875 242.714844 C 420.648438 238.285156 417.222656 234.078125 412.484375 231.183594 " fill-opacity="1" fill-rule="nonzero"/><path fill="#fef2fe" d="M 412.316406 223.160156 C 410.039062 221.953125 407.664062 220.984375 405.222656 220.359375 C 405.222656 220.359375 378.214844 221.347656 362.03125 238.695312 C 362.03125 238.695312 368.921875 251.859375 377.136719 257.519531 C 377.382812 256.394531 377.835938 255.324219 378.535156 254.445312 C 374.792969 250.640625 372.121094 245.476562 369.644531 240.707031 C 376.730469 233.890625 386.386719 230.125 396.207031 229.597656 C 401.625 228.746094 407.175781 229.304688 411.960938 232.648438 C 412.132812 232.160156 412.304688 231.671875 412.484375 231.183594 C 417.222656 234.078125 420.648438 238.285156 423.671875 242.714844 C 425.832031 244.792969 427.1875 246.207031 427.1875 246.207031 C 427.1875 246.207031 418.886719 251.042969 413.144531 255.019531 C 414.203125 255.832031 415.050781 256.804688 415.71875 257.890625 C 422.019531 254.140625 429.507812 252.433594 435.015625 247.371094 C 428.128906 238.707031 421.394531 229.117188 412.316406 223.160156 " fill-opacity="1" fill-rule="nonzero"/><path fill="#f6def8" d="M 412.316406 223.160156 C 421.394531 229.117188 428.128906 238.707031 435.015625 247.371094 C 429.507812 252.433594 422.019531 254.140625 415.71875 257.890625 C 415.9375 258.242188 416.136719 258.609375 416.316406 258.980469 C 421.992188 256.832031 432.765625 252.246094 436.8125 247.050781 C 436.8125 247.050781 426.433594 230.609375 412.316406 223.160156 " fill-opacity="1" fill-rule="nonzero"/><path fill="#7860dc" d="M 368.054688 352.429688 C 372.570312 342.292969 393.71875 294.238281 395.984375 279.316406 C 395.984375 279.316406 399.066406 279.738281 400.910156 276.355469 C 401.304688 275.628906 401.65625 274.457031 401.890625 273.046875 C 398.648438 275.558594 395.152344 278.152344 391.222656 278.152344 C 383.28125 302.875 377.242188 328.136719 368.054688 352.429688 " fill-opacity="1" fill-rule="nonzero"/><path fill="#8b77e8" d="M 396.832031 258.160156 C 390.058594 256.46875 382.65625 260.335938 382.65625 260.335938 C 382.65625 260.335938 367.425781 312.746094 367.214844 354.320312 C 367.214844 354.320312 367.515625 353.648438 368.054688 352.429688 C 377.242188 328.136719 383.28125 302.875 391.222656 278.152344 C 395.152344 278.152344 398.648438 275.558594 401.890625 273.046875 C 402.765625 267.871094 402.148438 259.492188 396.832031 258.160156 " fill-opacity="1" fill-rule="nonzero"/><path fill="#7860dc" d="M 395.324219 277.261719 C 395.761719 281.175781 396.804688 286.074219 398.222656 291.484375 C 401.160156 285.15625 403.6875 278.570312 403.917969 271.488281 C 401.246094 273.492188 398.417969 275.964844 395.324219 277.261719 " fill-opacity="1" fill-rule="nonzero"/><path fill="#8b77e8" d="M 408.464844 265.035156 C 402.964844 254.773438 396.40625 254.5625 395.136719 272.257812 C 395.035156 273.652344 395.109375 275.339844 395.324219 277.261719 C 398.417969 275.964844 401.246094 273.492188 403.917969 271.488281 C 403.6875 278.570312 401.160156 285.15625 398.222656 291.484375 C 404.933594 317.101562 420.101562 354.320312 420.101562 354.320312 C 420.523438 321.84375 408.464844 265.035156 408.464844 265.035156 " fill-opacity="1" fill-rule="nonzero"/><path fill="#f6def8" d="M 412.484375 231.183594 C 408.675781 241.339844 407.40625 251.8125 407.40625 262.601562 C 402.121094 265.121094 396.238281 265.441406 390.390625 264.992188 C 394.527344 266.328125 400.453125 266.96875 408.464844 265.035156 C 408.464844 265.035156 408.265625 241.496094 413.292969 231.703125 C 413.027344 231.53125 412.761719 231.351562 412.484375 231.183594 " fill-opacity="1" fill-rule="nonzero"/><path fill="#fef2fe" d="M 407.40625 262.601562 C 407.40625 251.8125 408.675781 241.339844 412.484375 231.183594 C 412.761719 231.351562 413.027344 231.53125 413.292969 231.703125 C 413.441406 231.414062 413.59375 231.132812 413.753906 230.867188 C 413.753906 230.867188 409.734375 222.613281 393.867188 226.636719 C 393.867188 226.636719 384.347656 253.097656 382.65625 260.335938 C 382.65625 260.335938 385.019531 263.253906 390.390625 264.992188 C 396.238281 265.441406 402.121094 265.121094 407.40625 262.601562 " fill-opacity="1" fill-rule="nonzero"/><path fill="#3f327a" d="M 419.175781 352.023438 L 417.007812 354.320312 L 434.0625 354.320312 Z M 419.175781 352.023438 " fill-opacity="1" fill-rule="nonzero"/><path fill="#3f327a" d="M 368.238281 352.023438 L 370.042969 354.320312 L 354.335938 354.320312 Z M 368.238281 352.023438 " fill-opacity="1" fill-rule="nonzero"/><path fill="#db4a87" d="M 404.601562 223.34375 C 400.691406 232.179688 398.195312 241.980469 398.363281 251.691406 L 404.667969 244.582031 C 403.230469 237.769531 404.3125 226.125 404.601562 223.34375 " fill-opacity="1" fill-rule="nonzero"/><path fill="#e5649a" d="M 404.601562 223.34375 C 404.640625 222.953125 404.667969 222.738281 404.667969 222.738281 C 403.398438 223.742188 393.136719 243.421875 393.136719 243.421875 L 398.003906 252.09375 L 398.363281 251.691406 C 398.195312 241.980469 400.691406 232.179688 404.601562 223.34375 " fill-opacity="1" fill-rule="nonzero"/><path fill="#db4a87" d="M 403.609375 221.523438 L 404.984375 221.152344 L 406.148438 221.734375 L 404.191406 223.957031 L 403.609375 221.523438 " fill-opacity="1" fill-rule="nonzero"/><path fill="#f6def8" d="M 376.292969 255.320312 C 376.292969 255.484375 376.15625 255.621094 375.992188 255.621094 C 375.828125 255.621094 375.691406 255.484375 375.691406 255.320312 C 375.691406 255.152344 375.828125 255.019531 375.992188 255.019531 C 376.15625 255.019531 376.292969 255.152344 376.292969 255.320312 " fill-opacity="1" fill-rule="nonzero"/><path fill="#f6def8" d="M 396.339844 261.101562 C 396.339844 261.265625 396.207031 261.402344 396.042969 261.402344 C 395.875 261.402344 395.742188 261.265625 395.742188 261.101562 C 395.742188 260.933594 395.875 260.800781 396.042969 260.800781 C 396.207031 260.800781 396.339844 260.933594 396.339844 261.101562 " fill-opacity="1" fill-rule="nonzero"/><path fill="#fef2fe" d="M 418.257812 257.433594 C 418.257812 257.597656 418.125 257.730469 417.957031 257.730469 C 417.792969 257.730469 417.660156 257.597656 417.660156 257.433594 C 417.660156 257.265625 417.792969 257.132812 417.957031 257.132812 C 418.125 257.132812 418.257812 257.265625 418.257812 257.433594 " fill-opacity="1" fill-rule="nonzero"/><path fill="#f6def8" d="M 397.234375 253.9375 C 397.234375 254.101562 397.101562 254.238281 396.933594 254.238281 C 396.769531 254.238281 396.636719 254.101562 396.636719 253.9375 C 396.636719 253.769531 396.769531 253.636719 396.933594 253.636719 C 397.101562 253.636719 397.234375 253.769531 397.234375 253.9375 " fill-opacity="1" fill-rule="nonzero"/><path fill="#ed7e94" d="M 409.8125 214.570312 C 409.8125 214.570312 410.765625 213.914062 410.792969 214.417969 C 410.816406 214.917969 409.867188 215.980469 409.363281 215.792969 C 408.863281 215.609375 409.8125 214.570312 409.8125 214.570312 " fill-opacity="1" fill-rule="nonzero"/><path fill="#ff96a9" d="M 402.964844 213.808594 C 402.964844 213.808594 402.566406 212.988281 402.355469 213.332031 C 402.144531 213.679688 402.382812 214.832031 402.886719 215.019531 C 403.386719 215.210938 402.964844 213.808594 402.964844 213.808594 " fill-opacity="1" fill-rule="nonzero"/><path fill="#ff96a9" d="M 404.3125 220.414062 L 404.984375 221.152344 L 406.589844 220.746094 L 405.277344 219.933594 L 404.3125 220.414062 " fill-opacity="1" fill-rule="nonzero"/><path fill="#f6def8" d="M 410.003906 234.59375 C 410 234.59375 409.992188 234.59375 409.984375 234.59375 L 405.09375 233.878906 C 405.007812 233.867188 404.945312 233.789062 404.960938 233.703125 C 404.972656 233.613281 405.054688 233.550781 405.140625 233.566406 L 410.027344 234.28125 C 410.117188 234.292969 410.175781 234.375 410.160156 234.460938 C 410.148438 234.539062 410.082031 234.59375 410.003906 234.59375 " fill-opacity="1" fill-rule="nonzero"/></svg>